<?xml version="1.0" standalone="no"?>
<!DOCTYPE svg PUBLIC "-//W3C//DTD SVG 20010904//EN"
 "http://www.w3.org/TR/2001/REC-SVG-20010904/DTD/svg10.dtd">
<svg version="1.0" xmlns="http://www.w3.org/2000/svg"
 width="308.000000pt" height="304.000000pt" viewBox="0 0 308.000000 304.000000"
 preserveAspectRatio="xMidYMid meet">

<g transform="translate(0.000000,304.000000) scale(0.100000,-0.100000)"
fill="#000000" stroke="none">
<path d="M0 1520 l0 -1520 1540 0 1540 0 0 1520 0 1520 -1540 0 -1540 0 0
-1520z m638 285 l3 -850 366 853 366 852 165 -2 166 -3 365 -866 366 -867 3
869 2 869 170 0 170 0 0 -1140 0 -1140 -1240 0 -1240 0 0 1133 c0 624 3 1137
7 1141 4 3 79 5 167 4 l161 -3 3 -850z"/>
<path d="M1228 1446 l-316 -736 624 0 c343 0 624 2 624 5 0 3 -135 325 -301
717 -166 392 -304 721 -308 731 -5 13 -102 -202 -323 -717z"/>
</g>
</svg>
